<?xml version="1.0" encoding="utf-8"?>
<!-- Generator: Adobe Illustrator 23.0.1, SVG Export Plug-In . SVG Version: 6.00 Build 0)  -->
<svg version="1.1" id="Layer_1" xmlns="http://www.w3.org/2000/svg" xmlns:xlink="http://www.w3.org/1999/xlink" x="0px" y="0px"
	 viewBox="0 0 300 300" style="enable-background:new 0 0 300 300;" xml:space="preserve">
<style type="text/css">
	.st0{fill:#444444;}
	.st1{fill:#444444;stroke:#444444;stroke-width:10;stroke-miterlimit:10;}
</style>
<g>
	<path class="st0" d="M243,55c1.1,0,2,0.9,2,2v186c0,1.1-0.9,2-2,2H57c-1.1,0-2-0.9-2-2V57c0-1.1,0.9-2,2-2H243 M243,45H57
		c-6.6,0-12,5.4-12,12v186c0,6.6,5.4,12,12,12h186c6.6,0,12-5.4,12-12V57C255,50.4,249.6,45,243,45L243,45z"/>
</g>
<polygon class="st1" points="72,229 226,229 176,153 143,180 114,132 "/>
<g>
	<path class="st0" d="M189,82c4.4,0,8,3.6,8,8s-3.6,8-8,8s-8-3.6-8-8S184.6,82,189,82 M189,72c-9.9,0-18,8.1-18,18s8.1,18,18,18
		s18-8.1,18-18S198.9,72,189,72L189,72z"/>
</g>
</svg>
